<?xml version="1.0" encoding="UTF-8"?>
<svg xmlns="http://www.w3.org/2000/svg" viewBox="0 -20 440 530" width="440" height="550">
  <style>
    .state { fill: #d4cdb8; stroke: #9a8468; stroke-width: 0.7; stroke-linejoin: round; }
    .claim { fill: #c8bfa5; stroke: #8b7d5e; stroke-width: 0.9; stroke-dasharray: 3,2; stroke-linejoin: round; }
  </style>
  <rect x="0" y="-20" width="440" height="550" fill="#1a1a28"/>
  
  <!-- J&K FULL CLAIM (new shape) -->
  <path class="claim" id="jk-full-claim"
    d="M163.6,78.0 L141.4,79.6 L111.9,79.6 L97.1,78.0
       L86.8,69.9 L80.9,61.9 L77.9,53.8 L75.0,44.2
       L72.0,36.1 L64.6,24.9 L67.6,15.2 L72.0,7.1
       L92.7,-0.9 L101.6,-4.1 L110.4,-0.9 L116.3,5.5
       L125.2,15.2 L131.1,21.6 L141.4,24.9 L156.2,28.1
       L171.0,24.9 L178.4,32.9 L178.4,41.0 L176.9,49.0
       L168.0,57.1 L159.2,65.1 L156.2,73.2 L163.6,78.0 Z"/>
  
  <!-- J&K label -->  
  <text x="121" y="35" font-family="sans-serif" font-size="7" font-weight="bold" fill="rgba(90,74,60,.9)" text-anchor="middle">J&amp;K</text>
  <text x="121" y="44" font-family="sans-serif" font-size="5" fill="rgba(90,74,60,.7)" text-anchor="middle" font-style="italic">India Claim</text>
  
  <!-- Delhi pin -->
  <circle cx="137" cy="144" r="6" fill="#B8960C" stroke="white" stroke-width="1.5"/>
  <text x="148" y="142" font-family="sans-serif" font-size="7" fill="white">Delhi</text>
  
  <!-- Chandigarh pin -->
  <circle cx="131" cy="112" r="5" fill="#065F46" stroke="white" stroke-width="1.5"/>
  <text x="142" y="116" font-family="sans-serif" font-size="7" fill="white">CHD</text>
  
  <!-- Himachal pin -->
  <circle cx="136" cy="100" r="4" fill="#1A3A6B" stroke="white" stroke-width="1.5"/>
  
  <!-- India outline approximation -->
  <!-- Gujarat west tip -->
  <circle cx="22" cy="250" r="2" fill="rgba(255,255,0,.5)"/>
  <text x="5" y="254" font-size="6" fill="rgba(255,255,0,.5)">Gujarat</text>
</svg>